<svg xmlns="http://www.w3.org/2000/svg" width="1920" height="200" viewBox="0 0 1920 200"><rect width="100%" height="100%" fill="#DDDDDD"/><path fill="#999999" d="M740.425 126.9h13v9.25h-40v-9.25h14.65V84.75q0-2.5.15-5.15l-10.4 8.7q-.9.7-1.78.87-.87.18-1.65.03-.77-.15-1.37-.53-.6-.37-.9-.82l-3.9-5.35 22.05-18.75h10.15zm35.75-41.35q0 6.05 3.12 9.22 3.13 3.18 8.88 3.18 3 0 5.35-.95t3.95-2.6 2.42-3.9q.83-2.25.83-4.85 0-2.95-.9-5.28-.9-2.32-2.55-3.92t-3.93-2.45q-2.27-.85-4.97-.85-2.8 0-5.05.92-2.25.93-3.85 2.58t-2.45 3.92q-.85 2.28-.85 4.98m-6.05 50.6 22.45-28.05q.85-1.05 1.6-2.05t1.45-2q-2.5 1.6-5.5 2.42-3 .83-6.3.83-3.75 0-7.35-1.3t-6.4-3.93q-2.8-2.62-4.53-6.5-1.72-3.87-1.72-9.07 0-4.85 1.8-9.1t5.05-7.45 7.8-5.05 10.05-1.85q5.55 0 9.97 1.75 4.43 1.75 7.55 4.9 3.13 3.15 4.8 7.55 1.68 4.4 1.68 9.65 0 3.35-.58 6.35-.57 3-1.62 5.77-1.05 2.78-2.55 5.43t-3.35 5.25l-16.55 23.6q-.85 1.2-2.55 2.02-1.7.83-3.85.83zm78.05-11.5h18.55q2 0 3.17 1.12 1.18 1.13 1.18 2.98v7.4h-49.6v-4.1q0-1.25.52-2.63.53-1.37 1.68-2.47l21.95-22q2.75-2.8 4.92-5.35 2.18-2.55 3.63-5.05t2.22-5.08q.78-2.57.78-5.42 0-2.6-.75-4.58-.75-1.97-2.13-3.32-1.37-1.35-3.3-2.03-1.92-.67-4.32-.67-2.2 0-4.08.62-1.87.63-3.32 1.75-1.45 1.13-2.45 2.63t-1.5 3.3q-.85 2.3-2.2 3.05t-3.9.35l-6.5-1.15q.75-5.2 2.9-9.13 2.15-3.92 5.37-6.55 3.23-2.62 7.4-3.95 4.18-1.32 8.98-1.32 5 0 9.15 1.47 4.15 1.48 7.1 4.18t4.6 6.5 1.65 8.45q0 4-1.18 7.4-1.17 3.4-3.15 6.5-1.97 3.1-4.62 6t-5.55 5.9l-16.3 16.65q2.35-.7 4.67-1.08 2.33-.37 4.43-.37m83-24.65q0 9.45-2.03 16.42-2.02 6.98-5.6 11.53-3.57 4.55-8.45 6.77-4.87 2.23-10.52 2.23t-10.48-2.23q-4.82-2.22-8.37-6.77t-5.55-11.53q-2-6.97-2-16.42 0-9.5 2-16.45t5.55-11.5 8.37-6.78q4.83-2.22 10.48-2.22t10.52 2.22q4.88 2.23 8.45 6.78 3.58 4.55 5.6 11.5 2.03 6.95 2.03 16.45m-12.75 0q0-7.85-1.15-13t-3.08-8.2q-1.92-3.05-4.42-4.28-2.5-1.22-5.2-1.22-2.65 0-5.13 1.22-2.47 1.23-4.37 4.28t-3.03 8.2q-1.12 5.15-1.12 13t1.12 13q1.13 5.15 3.03 8.2t4.37 4.27q2.48 1.23 5.13 1.23 2.7 0 5.2-1.23 2.5-1.22 4.42-4.27 1.93-3.05 3.08-8.2t1.15-13m92.15 19.6-6.55 6.45-16.95-16.95-17.1 17.05-6.55-6.45 17.1-17.15-16.3-16.3 6.5-6.5 16.3 16.3 16.2-16.2 6.6 6.5-16.25 16.25zm60.2 5.05h18.55q2 0 3.17 1.12 1.18 1.13 1.18 2.98v7.4h-49.6v-4.1q0-1.25.52-2.63.53-1.37 1.68-2.47l21.95-22q2.75-2.8 4.92-5.35 2.18-2.55 3.63-5.05t2.22-5.08q.78-2.57.78-5.42 0-2.6-.75-4.58-.75-1.97-2.13-3.32-1.37-1.35-3.3-2.03-1.92-.67-4.32-.67-2.2 0-4.08.62-1.87.63-3.32 1.75-1.45 1.13-2.45 2.63t-1.5 3.3q-.85 2.3-2.2 3.05t-3.9.35l-6.5-1.15q.75-5.2 2.9-9.13 2.15-3.92 5.37-6.55 3.23-2.62 7.4-3.95 4.18-1.32 8.98-1.32 5 0 9.15 1.47 4.15 1.48 7.1 4.18t4.6 6.5 1.65 8.45q0 4-1.18 7.4-1.17 3.4-3.15 6.5-1.97 3.1-4.62 6t-5.55 5.9l-16.3 16.65q2.35-.7 4.67-1.08 2.33-.37 4.43-.37m83-24.65q0 9.45-2.03 16.42-2.02 6.98-5.6 11.53-3.57 4.55-8.45 6.77-4.87 2.23-10.52 2.23t-10.48-2.23q-4.82-2.22-8.37-6.77t-5.55-11.53q-2-6.97-2-16.42 0-9.5 2-16.45t5.55-11.5 8.37-6.78q4.83-2.22 10.48-2.22t10.52 2.22q4.88 2.23 8.45 6.78 3.58 4.55 5.6 11.5 2.03 6.95 2.03 16.45m-12.75 0q0-7.85-1.15-13t-3.08-8.2q-1.92-3.05-4.42-4.28-2.5-1.22-5.2-1.22-2.65 0-5.13 1.22-2.47 1.23-4.37 4.28t-3.03 8.2q-1.12 5.15-1.12 13t1.12 13q1.13 5.15 3.03 8.2t4.37 4.27q2.48 1.23 5.13 1.23 2.7 0 5.2-1.23 2.5-1.22 4.42-4.27 1.93-3.05 3.08-8.2t1.15-13m70.75 0q0 9.45-2.03 16.42-2.02 6.98-5.6 11.53-3.57 4.55-8.45 6.77-4.87 2.23-10.52 2.23t-10.48-2.23q-4.82-2.22-8.37-6.77t-5.55-11.53q-2-6.97-2-16.42 0-9.5 2-16.45t5.55-11.5 8.37-6.78q4.83-2.22 10.48-2.22t10.52 2.22q4.88 2.23 8.45 6.78 3.58 4.55 5.6 11.5 2.03 6.95 2.03 16.45m-12.75 0q0-7.85-1.15-13t-3.08-8.2q-1.92-3.05-4.42-4.28-2.5-1.22-5.2-1.22-2.65 0-5.13 1.22-2.47 1.23-4.37 4.28t-3.03 8.2q-1.12 5.15-1.12 13t1.12 13q1.13 5.15 3.03 8.2t4.37 4.27q2.48 1.23 5.13 1.23 2.7 0 5.2-1.23 2.5-1.22 4.42-4.27 1.93-3.05 3.08-8.2t1.15-13"/></svg>